# xmcd
#
# Track frame offsets:
# 150
# 26362
# 48937
# 81450
# 108375
# 136687
# 168562
# 190537
# 226687
# 244650
# 269250
#
# Disc length: 3985 seconds
#
#
# Revision: 0
# Processed by: cddbd v1.4PL0 Copyright (c) Steve Scherf et al.
# Submitted via: FreeRIP 2.51 
#
DISCID=810f8f0b
DTITLE=David Maxwell - Maximum Blues Piano
DYEAR=1997
DGENRE=Blues
TTITLE0=Blue Don't Bother Me
TTITLE1=Breakdown on the Bayou
TTITLE2=After Hours
TTITLE3=Sister Laura Lee
TTITLE4=Down at P.J.'s Place
TTITLE5=Honky Tonk Train
TTITLE6=Heart Attack
TTITLE7=Deep into it
TTITLE8=Walk the Walk
TTITLE9=Manhattan Max
TTITLE10=Take Me On Home
EXTD=www.tonecool.com
EXTT0=
EXTT1=
EXTT2=
EXTT3=
EXTT4=
EXTT5=
EXTT6=
EXTT7=
EXTT8=
EXTT9=
EXTT10=
PLAYORDER=
